<svg xmlns="http://www.w3.org/2000/svg" width="30" height="30" fill="none"><g fill="#7cb342"><path d="M7.5 18.126a1.25 1.25 0 0 1-1.25 1.25A1.25 1.25 0 0 1 5 18.126v-5.625a1.25 1.25 0 0 1 1.25-1.25 1.25 1.25 0 0 1 1.25 1.25v5.625zm17.5 0a1.25 1.25 0 0 1-1.25 1.25 1.25 1.25 0 0 1-1.25-1.25v-5.625a1.25 1.25 0 0 1 1.25-1.25 1.25 1.25 0 0 1 1.25 1.25v5.625zM13.75 25a1.25 1.25 0 0 1-1.25 1.25A1.25 1.25 0 0 1 11.25 25v-5.625a1.25 1.25 0 0 1 1.25-1.25 1.25 1.25 0 0 1 1.25 1.25V25zm5 0a1.25 1.25 0 0 1-1.25 1.25A1.25 1.25 0 0 1 16.25 25v-5.625a1.25 1.25 0 0 1 1.25-1.25 1.25 1.25 0 0 1 1.25 1.25V25z"/><path d="M8.75 11.251v9.374a1.25 1.25 0 0 0 1.25 1.25h10a1.25 1.25 0 0 0 1.25-1.25v-9.374H8.75zM15 5c-3.75 0-6.034 2.278-6.25 5h12.5c-.216-2.722-2.5-5-6.25-5zm-2.5 3.499c-.166 0-.325-.066-.442-.183s-.183-.276-.183-.442.066-.325.183-.442.276-.183.442-.183.325.066.442.183.183.276.183.442-.066.325-.183.442-.276.183-.442.183zm5 0c-.166 0-.325-.066-.442-.183s-.183-.276-.183-.442.066-.325.183-.442.276-.183.442-.183.325.066.442.183.183.276.183.442-.066.325-.183.442-.276.183-.442.183z"/></g><path d="M11.25 4.375l.833 1.301m6.667-1.301l-1.041 1.562 1.041-1.562z" stroke="#7cb342" stroke-width="2" stroke-linecap="round"/></svg>